<svg clip-rule="evenodd" fill-rule="evenodd" height="79.738876" stroke-linejoin="round" stroke-miterlimit="2" viewBox="0 0 120.27135 79.738876" width="120.27135" xmlns="http://www.w3.org/2000/svg"><g fill-rule="nonzero" transform="translate(2.499969 2.499892)"><path d="m1.399.364c.722 2.525.722 2.503.292 4.149-.225.88-.361 1.601-.315 1.623.023.023.361.204.745.384.474.248.744.631.969 1.353l.315 1.015-1.714 4.487-1.691 4.512.745 1.037c.496.699.879 1.601 1.128 2.774.338 1.511.474 1.781 1.059 2.074.767.406.745.406 1.218 4.488l.383 3.134 1.669 2.414c1.512 2.187 1.669 2.549 1.669 3.518 0 .744.18 1.375.587 2.052.563.993.563.993.315 3.631-.135 1.443-.27 2.886-.293 3.181-.044.45.091.585.858.789.789.226.902.361.969.969.068.586.204.744.745.857.766.18.789.226.203 1.736-.609 1.601-.587 1.714.339 1.895.924.158.947.293.315 1.669l-.45 1.015.586.474c.587.474.587.474.316 1.872-.271 1.239-.248 1.578.203 3.383.474 1.939.474 2.052.113 3.923l-.383 1.918.721.811c.496.586.722 1.06.722 1.579v.744l2.886.135c1.579.069 8.908.317 16.282.541 13.283.384 13.598.384 30.445-.113 9.359-.292 18.696-.563 20.747-.631l3.72-.135 2.188 2.48c2.142 2.414 2.233 2.481 3.248 2.571l1.037.067-.135-1.128c-.068-.609-.181-1.578-.248-2.141l-.136-1.015 2.165-1.218c1.172-.654 2.232-1.376 2.345-1.578.089-.204.406-1.173.699-2.166.428-1.465.766-2.097 1.826-3.427l1.33-1.601-.316-1.647c-.293-1.533-.383-1.713-1.578-2.864-.699-.654-1.262-1.33-1.262-1.465 0-.113.27-1.218.585-2.414l.586-2.165 2.729-.406c2.323-.339 3.134-.587 5.3-1.556 3.428-1.556 3.992-2.165 4.218-4.533.157-1.691.18-1.736 1.263-2.707l1.105-.992.339-2.459c.271-2.119.204-3.946-.157-4.216-.023-.023-1.038-.767-2.233-1.647l-2.165-1.601-.293-1.376-.293-1.376-1.758-1.128c-1.331-.857-1.782-1.263-1.782-1.624 0-.902-1.218-4.239-1.579-4.33-.181-.068-1.398-.315-2.706-.587-2.503-.541-3.338-1.015-3.811-2.232-.135-.315-.654-2.458-1.173-4.736l-.924-4.127.722-1.623c.383-.88.767-1.714.834-1.871.068-.158-.317-.497-.925-.767-.946-.474-1.059-.61-1.623-2.233l-.587-1.713-6.697.09c-30.467.361-40.322.384-59.22.135-28.87-.404-27.472-.404-27.336.069z" fill="#f90" fill-opacity=".75" stroke="#f90" stroke-linecap="round" stroke-width="5"/><path d="m52.955 54.534c-.996-1.028-3.479-3.029-5.517-4.447-6.039-4.199-6.861-4.807-9.316-6.89-4.525-3.839-6.463-7.713-6.494-12.981-.016-2.572.165-3.564.925-5.085 1.29-2.58 3.204-4.503 5.66-5.687 1.74-.839 2.598-1.212 5.512-1.245 3.049-.035 3.693.293 5.493 1.202 2.191 1.106 4.455 3.485 4.932 5.182l.294 1.049.698-1.451c3.939-8.197 16.703-8.155 21.203.071 1.428 2.609 1.623 8.198.396 11.355-1.6 4.118-4.639 7.269-11.681 12.113-4.618 3.176-9.837 7.971-10.197 8.642-.419.779-.02.122-1.908-1.828z" fill="#f30"/></g></svg>