<svg height="32" viewBox="0 0 256 256" width="32" xmlns="http://www.w3.org/2000/svg"><path d="m225.30258 148.58c1.1757-3.53658.88305-7.39703-.81236-10.71595-33.61717-66.135232-101.15962-108.1509-175.342701-109.07423-7.713928-.073572-14.033814 6.106839-14.132377 13.820489l-1.555469 184.248301c-.162469 10.55925 10.978815 17.48983 20.378812 12.6769l164.543515-82.85944c3.2966-1.66477 5.78905-4.58058 6.92058-8.09607zm-176.919288 80.22501c-1.356192.72106-2.985308-.29236-2.937945-1.82759l1.299316-153.999588c59.159847-.241028 113.237857 33.398918 139.170307 86.572718-9.49686 3.87209-117.667862 60.14564-137.531678 69.25446zm164.594458-82.82775-16.34698 8.17961c-27.95004-57.193214-86.12719-93.383073-149.784275-93.175277l.154321-18.25247c-.0029-.517057.207329-1.012473.581164-1.369689.389418-.374013.913516-.574684 1.453143-.556394 69.688977.879777 133.137027 40.348476 164.728737 102.47168.24635.47537.29182 1.02968.12621 1.53885-.14872.49405-.4939.90529-.95477 1.13728z" fill="#f90"/><path d="m96.893349 172.20696c-1.67214-1.68519-5.84074-4.96539-9.26225-7.2899-10.13861-6.88335-11.51862-7.88004-15.6402-11.29468-7.596827-6.29321-10.850448-12.6438-10.902492-21.27955-.02686-4.21624.277011-5.84241 1.552941-8.33576 2.165722-4.22936 5.379051-7.3817 9.502321-9.32262 2.92121-1.37536 4.36166-1.98681 9.25384-2.04091 5.11884-.0574 6.20001.48032 9.22196 1.97043 3.67837 1.81304 7.47929 5.71291 8.28011 8.49477l.49358 1.71961 1.171841-2.37861c6.61301-13.43721 28.04191-13.36836 35.59677.1164 2.39739 4.27689 2.72477 13.43886.66482 18.61407-2.68617 6.75058-7.78821 11.91597-19.6107 19.85666-7.75295 5.20637-16.5149 13.06674-17.11929 14.1667-.703441 1.277-.0336.19999-3.203251-2.99661z" fill="#f30" stroke-width="1.65895"/><g fill="#f90" transform="scale(8)"><path d="m24.339261 18.748281c-1.362406-2.649106-3.465002-5.123201-5.9316-6.979631-3.367801-2.5347013-7.539937-4.0127056-11.6828655-4.1387261l-.8702797-.0264723.0307905-1.1861308c.026403-1.0171189.040884-1.1939276.1016288-1.2408502.086175-.066567.4693339-.06926 1.3235984-.00931 3.2336265.2269468 6.0983225 1.0001426 8.9302325 2.410315 1.733492.8632062 3.177376 1.8067446 4.686423 3.0624474.700546.582936 2.213832 2.096222 2.796768 2.796768 1.093437 1.314042 2.042389 2.717168 2.740202 4.051676.218636.418123.266946.545182.236761.622713-.0275.07063-.315089.23609-1.046211.601915-.554559.277481-1.023227.504268-1.041485.503972-.01826-.000296-.141541-.211207-.273963-.468691z" fill-opacity=".25"/><path d="m5.7673247 28.508892c-.062029-.06947-.060766-.941711.013551-9.357045.045076-5.104241.082655-9.4429551.083509-9.6415871l.00155-.3611491h.4095117c1.7143928 0 3.9205936.3846352 5.7675076 1.0055232 4.474636 1.504266 8.210987 4.568354 10.56388 8.663175.497204.865301.616571 1.114647.544807 1.138049-.146858.04789-4.042453 2.01108-7.873941 3.968083-6.0553359 3.092872-9.1937421 4.661558-9.3261895 4.661558-.06368 0-.1465649-.03447-.1841882-.07661zm6.8245823-6.664475c.290586-.345342 1.206245-1.073875 2.630544-2.092962 1.593332-1.14003 2.125446-2.008696 2.056147-3.356617-.03126-.608084-.143028-.978059-.401544-1.329228-.338009-.459153-.845619-.791707-1.444391-.946275-.341447-.08814-1.049868-.08741-1.392748.0014-.61679.159827-1.200136.610609-1.46307 1.130594l-.129225.255557-.119546-.244342c-.18102-.369994-.581502-.740005-1.05577-.975444-.363533-.180467-.432747-.199369-.811609-.221652-.6028993-.03546-.9926614.03609-1.4686114.269597-.5405327.265191-.9069123.626201-1.1655918 1.148511l-.1876409.378873.00343.659737c.00307.59059.015575.696443.1192629 1.009943.3099664.937176.9060161 1.550507 2.7008322 2.779135 1.088625.745209 1.599593 1.157969 1.856817 1.499934.06791.09029.132262.164159.142997.164159.01074 0 .06911-.05893.129713-.130959z" fill-opacity=".75" stroke="#fc0" stroke-linecap="round" stroke-width=".170415"/></g></svg>